<svg width="405.6" height="103.5" viewBox="0 0 405.6 103.5" xmlns="http://www.w3.org/2000/svg"><g id="svgGroup" stroke-linecap="round" fill-rule="evenodd" font-size="9pt" stroke="#023047" stroke-width="0.25mm" fill="#023047" style="stroke:#023047;stroke-width:0.25mm;fill:#023047"><path d="M 233.9 59.6 L 232.5 53.7 A 21.704 21.704 0 0 0 236.47 52.49 Q 238.74 51.534 240.383 50.102 A 11.875 11.875 0 0 0 241.75 48.7 Q 244.8 45 244.8 41.55 A 10.032 10.032 0 0 0 244.677 39.918 Q 244.536 39.065 244.233 38.405 A 3.674 3.674 0 0 0 242.95 36.85 Q 241.1 35.6 238.9 35.6 A 8.311 8.311 0 0 0 233.599 37.55 Q 232.427 38.487 231.354 39.875 A 18.943 18.943 0 0 0 230.65 40.85 A 20.589 20.589 0 0 0 227.336 49.745 A 26.759 26.759 0 0 0 227.1 53.35 A 24.275 24.275 0 0 0 227.404 57.329 Q 227.759 59.458 228.526 61.144 A 10.529 10.529 0 0 0 230.55 64.15 A 11.4 11.4 0 0 0 238.783 67.697 A 14.435 14.435 0 0 0 239.1 67.7 Q 246.6 67.7 253.5 62.5 A 37.98 37.98 0 0 0 259.906 56.318 A 30.821 30.821 0 0 1 259.8 53.7 A 24.451 24.451 0 0 1 267.059 36.199 A 32.148 32.148 0 0 1 267.55 35.7 A 25.765 25.765 0 0 1 278.656 29.017 A 26.72 26.72 0 0 1 286.1 28 Q 293.8 28 298.6 31.35 A 11.871 11.871 0 0 1 301.769 34.528 Q 303.389 36.981 303.495 40.192 A 13.562 13.562 0 0 1 303.5 40.4 A 15.539 15.539 0 0 1 301.89 47.521 Q 300.353 50.557 297.35 52.9 A 28.606 28.606 0 0 1 291.098 56.545 Q 288.021 57.88 284.295 58.8 A 58.457 58.457 0 0 1 280.5 59.6 L 279.1 53.7 A 21.704 21.704 0 0 0 283.07 52.49 Q 285.34 51.534 286.983 50.102 A 11.875 11.875 0 0 0 288.35 48.7 Q 291.4 45 291.4 41.55 A 10.032 10.032 0 0 0 291.277 39.918 Q 291.136 39.065 290.833 38.405 A 3.674 3.674 0 0 0 289.55 36.85 Q 287.7 35.6 285.5 35.6 A 8.311 8.311 0 0 0 280.199 37.55 Q 279.027 38.487 277.954 39.875 A 18.943 18.943 0 0 0 277.25 40.85 A 20.589 20.589 0 0 0 273.936 49.745 A 26.759 26.759 0 0 0 273.7 53.35 A 24.275 24.275 0 0 0 274.004 57.329 Q 274.359 59.458 275.126 61.144 A 10.529 10.529 0 0 0 277.15 64.15 A 11.4 11.4 0 0 0 285.383 67.697 A 14.435 14.435 0 0 0 285.7 67.7 Q 293.2 67.7 300.1 62.5 A 37.98 37.98 0 0 0 309.856 51.509 A 45.32 45.32 0 0 0 311.3 48.9 A 21.075 21.075 0 0 1 313.771 51.747 A 27.122 27.122 0 0 1 315.3 54.1 A 33.356 33.356 0 0 1 311.606 60.384 A 61.472 61.472 0 0 1 312.359 59.433 Q 313.792 57.648 315.6 55.6 A 181.295 181.295 0 0 1 316.889 54.155 Q 319.253 51.526 323.8 46.6 Q 328.976 40.993 331.101 38.437 A 40.169 40.169 0 0 0 331.7 37.7 L 326.4 37.4 A 14.856 14.856 0 0 1 323.775 41.628 A 13.669 13.669 0 0 1 322.05 43.25 Q 319.2 45.5 315.7 45.5 Q 311.7 45.5 309.2 43.15 Q 306.7 40.8 306.7 36.6 A 9.825 9.825 0 0 1 307.16 33.523 A 8.008 8.008 0 0 1 309.6 29.9 A 9.691 9.691 0 0 1 313.302 27.95 Q 314.733 27.538 316.435 27.435 A 19.296 19.296 0 0 1 317.6 27.4 L 345.4 28 A 0.922 0.922 0 0 1 346.211 28.509 Q 346.654 29.239 346.696 31.016 A 16.275 16.275 0 0 1 346.7 31.4 A 15.175 15.175 0 0 1 346.573 33.432 Q 346.433 34.463 346.14 35.305 A 6.305 6.305 0 0 1 345.4 36.8 A 18.933 18.933 0 0 1 344.149 38.773 Q 343.216 40.072 341.95 41.45 Q 340.227 43.326 337.303 46.14 A 247.212 247.212 0 0 1 335.4 47.95 Q 331.44 51.68 329.685 53.417 A 77.31 77.31 0 0 0 329.4 53.7 A 74.182 74.182 0 0 0 324.853 58.655 Q 322.549 61.422 320.858 64.098 A 38.954 38.954 0 0 0 319.4 66.6 L 326.1 67 A 14.856 14.856 0 0 1 328.725 62.772 A 13.669 13.669 0 0 1 330.45 61.15 Q 333.3 58.9 336.8 58.9 Q 340.8 58.9 343.3 61.25 Q 345.8 63.6 345.8 67.8 A 9.825 9.825 0 0 1 345.34 70.877 A 8.008 8.008 0 0 1 342.9 74.5 A 9.691 9.691 0 0 1 339.198 76.451 Q 337.767 76.863 336.065 76.966 A 19.296 19.296 0 0 1 334.9 77 L 307.1 76.4 Q 305.8 76.4 305.8 72.85 Q 305.8 70.344 306.548 68.61 A 6.389 6.389 0 0 1 307.3 67.3 Q 308.027 65.363 309.997 62.557 A 61.472 61.472 0 0 1 311.106 61.039 A 49.234 49.234 0 0 1 305.901 66.732 A 64.263 64.263 0 0 1 303.6 68.8 A 33.06 33.06 0 0 1 296.845 73.12 A 40.097 40.097 0 0 1 293.65 74.5 Q 287.9 76.7 281.8 76.7 Q 271.8 76.7 266 70.6 A 22.598 22.598 0 0 1 261.802 64.219 A 49.234 49.234 0 0 1 259.301 66.732 A 64.263 64.263 0 0 1 257 68.8 A 33.06 33.06 0 0 1 250.245 73.12 A 40.097 40.097 0 0 1 247.05 74.5 Q 241.3 76.7 235.2 76.7 Q 225.2 76.7 219.4 70.6 Q 213.2 64 213.2 53.7 A 24.451 24.451 0 0 1 220.459 36.199 A 32.148 32.148 0 0 1 220.95 35.7 A 25.765 25.765 0 0 1 232.056 29.017 A 26.72 26.72 0 0 1 239.5 28 Q 247.2 28 252 31.35 A 11.871 11.871 0 0 1 255.169 34.528 Q 256.789 36.981 256.895 40.192 A 13.562 13.562 0 0 1 256.9 40.4 A 15.539 15.539 0 0 1 255.29 47.521 Q 253.753 50.557 250.75 52.9 A 28.606 28.606 0 0 1 244.498 56.545 Q 241.421 57.88 237.695 58.8 A 58.457 58.457 0 0 1 233.9 59.6 Z M 86.6 64.7 L 89 42.6 A 8.582 8.582 0 0 0 88.755 40.501 A 6.409 6.409 0 0 0 87.6 38.1 Q 86.352 36.496 83.754 36.322 A 9.767 9.767 0 0 0 83.1 36.3 A 6.653 6.653 0 0 0 78.157 38.418 A 8.776 8.776 0 0 0 77.85 38.75 A 12.889 12.889 0 0 0 75.89 41.791 Q 75.169 43.325 74.7 45.2 A 1663.862 1663.862 0 0 1 74.306 48.379 Q 73.855 51.994 73.218 57.006 A 7172.471 7172.471 0 0 1 72.6 61.85 A 8815.817 8815.817 0 0 0 72.035 66.275 Q 71.329 71.824 70.98 74.635 A 541.423 541.423 0 0 0 70.8 76.1 L 57.5 76.1 A 42349.922 42349.922 0 0 0 60 54.776 Q 64.587 15.545 65.984 2.795 A 857.779 857.779 0 0 0 66.2 0.8 Q 68.3 0 71.9 0 A 19.772 19.772 0 0 1 74.551 0.162 Q 77.467 0.559 78.732 1.93 A 3.785 3.785 0 0 1 79.7 4.6 L 79.7 5.2 A 698.497 698.497 0 0 1 78.174 18.211 Q 77.42 24.133 76.63 29.378 A 388.817 388.817 0 0 1 76.1 32.8 Q 81.4 28 88.1 28 Q 94.8 28 98.7 31.4 Q 102.6 34.8 102.6 40 Q 102.6 41.149 102.196 43.914 A 113.408 113.408 0 0 1 102 45.2 Q 99.952 58.56 99.728 62.084 A 11.681 11.681 0 0 0 99.7 62.8 A 10.671 10.671 0 0 0 99.809 64.398 Q 100.129 66.501 101.39 67.178 A 2.936 2.936 0 0 0 102.8 67.5 Q 105.229 67.5 107.963 64.49 A 19.592 19.592 0 0 0 108.35 64.05 A 15.995 15.995 0 0 0 109.026 63.185 A 20.197 20.197 0 0 1 107.703 55.921 A 25.631 25.631 0 0 1 107.7 55.5 Q 107.7 42.9 115.4 35.5 A 26.61 26.61 0 0 1 131.897 28.15 A 35.748 35.748 0 0 1 135.2 28 A 23.598 23.598 0 0 1 143.094 29.275 A 20.533 20.533 0 0 1 150.55 33.9 A 19.151 19.151 0 0 1 156.694 47.772 A 23.165 23.165 0 0 1 156.7 48.3 A 35.749 35.749 0 0 1 155.638 57.251 A 25.613 25.613 0 0 1 149.15 68.95 A 25.083 25.083 0 0 1 139.074 75.421 A 25.622 25.622 0 0 1 130.9 76.7 A 30.355 30.355 0 0 1 123.784 75.913 A 20.72 20.72 0 0 1 113.95 70.6 A 20.197 20.197 0 0 1 112.581 69.157 A 22.06 22.06 0 0 1 109.657 72.466 A 15.7 15.7 0 0 1 98.8 76.5 Q 92.6 76.5 89.6 72.7 A 14.901 14.901 0 0 1 87.549 69.299 A 11.659 11.659 0 0 1 86.6 64.7 Z M 53.666 49.33 A 23.839 23.839 0 0 0 49.5 45.5 Q 46.635 43.465 39.849 40.236 A 239.313 239.313 0 0 0 35 38 A 24.601 24.601 0 0 0 35.738 36.473 Q 37.1 33.377 37.1 30.8 A 9.807 9.807 0 0 0 37.03 29.616 A 7.283 7.283 0 0 0 35.2 25.5 A 12.024 12.024 0 0 0 34.647 24.946 A 8.862 8.862 0 0 0 28.4 22.4 Q 24.1 22.4 20.95 25.3 Q 17.8 28.2 17.8 32.4 A 9.494 9.494 0 0 0 17.802 32.613 Q 17.894 36.694 21.5 40.3 Q 6.4 53.9 2.3 61.7 A 22.426 22.426 0 0 0 1.518 63.354 A 18.459 18.459 0 0 0 0 70.6 A 18.44 18.44 0 0 0 0.003 70.941 Q 0.134 78.004 5.7 82.3 A 17.825 17.825 0 0 0 8.383 84.005 A 12.974 12.974 0 0 0 14.35 85.5 Q 18.8 85.5 22.9 84 A 14.311 14.311 0 0 0 23.486 83.746 Q 24.588 83.237 24.938 82.795 A 0.644 0.644 0 0 0 25.1 82.4 Q 25.1 82.3 23.75 82 A 13.459 13.459 0 0 1 23.061 81.827 Q 22.5 81.671 21.867 81.45 A 28.938 28.938 0 0 1 20.55 80.95 A 21.299 21.299 0 0 1 19.155 80.325 A 25.423 25.423 0 0 1 16.8 79 A 8.606 8.606 0 0 1 14.837 77.271 A 11.896 11.896 0 0 1 13.55 75.4 A 11.584 11.584 0 0 1 12.663 73.439 A 8.357 8.357 0 0 1 12.2 70.75 A 47.116 47.116 0 0 1 12.201 70.428 Q 12.215 68.442 12.4 67.7 Q 12.925 64.625 16.206 60.425 A 48.564 48.564 0 0 1 18.7 57.5 A 366.764 366.764 0 0 1 19.714 56.389 Q 21.497 54.445 24.1 51.65 Q 27.5 48 29.3 45.9 A 4.704 4.704 0 0 1 29.563 46.042 A 5.553 5.553 0 0 1 30.1 46.4 A 1.22 1.22 0 0 1 30.149 46.427 Q 30.484 46.617 32.594 47.915 A 1042.891 1042.891 0 0 1 33.3 48.35 Q 36.3 50.2 38.9 52.3 A 14.575 14.575 0 0 1 41.074 54.526 A 9.539 9.539 0 0 1 43.2 60.5 Q 43.2 63.3 41.3 65.45 A 6.318 6.318 0 0 1 39.225 67.029 A 6.384 6.384 0 0 1 36.5 67.6 A 8.932 8.932 0 0 1 35.342 67.528 A 6.608 6.608 0 0 1 31.7 65.9 A 5.49 5.49 0 0 1 30.138 63.584 A 6.462 6.462 0 0 1 29.8 61.45 Q 29.8 58.7 31.9 55.7 A 16.873 16.873 0 0 0 29.841 56.103 A 13.115 13.115 0 0 0 24.4 58.95 A 8.496 8.496 0 0 0 21.849 62.897 A 10.89 10.89 0 0 0 21.4 66.1 A 8.579 8.579 0 0 0 23.067 71.278 A 11.377 11.377 0 0 0 25.45 73.65 A 14.656 14.656 0 0 0 30.982 76.197 A 20.138 20.138 0 0 0 35.6 76.7 A 31.29 31.29 0 0 0 41.554 76.159 A 22.482 22.482 0 0 0 51.2 71.9 A 19.495 19.495 0 0 0 51.407 71.738 Q 54.59 69.204 56.083 65.825 A 16.221 16.221 0 0 0 57.4 59.2 A 14.962 14.962 0 0 0 53.666 49.33 Z M 370.8 59.6 L 369.4 53.7 A 21.704 21.704 0 0 0 373.37 52.49 Q 375.64 51.534 377.283 50.102 A 11.875 11.875 0 0 0 378.65 48.7 Q 381.7 45 381.7 41.55 A 10.032 10.032 0 0 0 381.577 39.918 Q 381.436 39.065 381.133 38.405 A 3.674 3.674 0 0 0 379.85 36.85 Q 378 35.6 375.8 35.6 A 8.311 8.311 0 0 0 370.499 37.55 Q 369.327 38.487 368.254 39.875 A 18.943 18.943 0 0 0 367.55 40.85 A 20.589 20.589 0 0 0 364.236 49.745 A 26.759 26.759 0 0 0 364 53.35 A 24.275 24.275 0 0 0 364.304 57.329 Q 364.659 59.458 365.426 61.144 A 10.529 10.529 0 0 0 367.45 64.15 A 11.4 11.4 0 0 0 375.683 67.697 A 14.435 14.435 0 0 0 376 67.7 Q 383.5 67.7 390.4 62.5 A 37.98 37.98 0 0 0 400.156 51.509 A 45.32 45.32 0 0 0 401.6 48.9 A 21.075 21.075 0 0 1 404.071 51.747 A 27.122 27.122 0 0 1 405.6 54.1 A 33.356 33.356 0 0 1 401.474 60.951 Q 398.428 64.919 393.9 68.8 A 33.06 33.06 0 0 1 387.145 73.12 A 40.097 40.097 0 0 1 383.95 74.5 Q 378.2 76.7 372.1 76.7 Q 362.1 76.7 356.3 70.6 Q 350.1 64 350.1 53.7 A 24.451 24.451 0 0 1 357.359 36.199 A 32.148 32.148 0 0 1 357.85 35.7 A 25.765 25.765 0 0 1 368.956 29.017 A 26.72 26.72 0 0 1 376.4 28 Q 384.1 28 388.9 31.35 A 11.871 11.871 0 0 1 392.069 34.528 Q 393.689 36.981 393.795 40.192 A 13.562 13.562 0 0 1 393.8 40.4 A 15.539 15.539 0 0 1 392.19 47.521 Q 390.653 50.557 387.65 52.9 A 28.606 28.606 0 0 1 381.398 56.545 Q 378.321 57.88 374.595 58.8 A 58.457 58.457 0 0 1 370.8 59.6 Z M 174 76 L 170.8 103.5 L 157.7 103.5 A 55443.771 55443.771 0 0 0 160.469 79.617 Q 163.644 52.182 165.375 36.91 A 4996.445 4996.445 0 0 0 166.3 28.7 Q 168.4 27.9 172 27.9 A 19.527 19.527 0 0 1 174.502 28.047 Q 177.158 28.392 178.489 29.547 A 3.709 3.709 0 0 1 179.6 31.2 Q 184.176 27.987 191.122 27.903 A 30.994 30.994 0 0 1 191.5 27.9 A 15.677 15.677 0 0 1 202.865 32.704 A 21.645 21.645 0 0 1 203.9 33.8 Q 209.1 39.7 209.1 47.6 A 26.803 26.803 0 0 1 209.044 49.307 A 30.696 30.696 0 0 1 209 49.9 A 39.279 39.279 0 0 1 207.464 58.168 Q 205.789 63.614 202.481 67.515 A 23.236 23.236 0 0 1 200.2 69.85 A 26.485 26.485 0 0 1 187.562 75.998 A 37.765 37.765 0 0 1 180.1 76.7 A 26.017 26.017 0 0 1 176.888 76.491 A 34.462 34.462 0 0 1 174 76 Z M 133.25 36.1 A 7.851 7.851 0 0 0 127.742 38.371 Q 126.425 39.602 125.3 41.5 Q 122.406 46.384 121.884 53.557 A 42.82 42.82 0 0 0 121.8 55.1 A 23.681 23.681 0 0 0 122.13 59.169 Q 122.544 61.536 123.473 63.464 A 13.475 13.475 0 0 0 124.15 64.7 A 7.577 7.577 0 0 0 129.586 68.367 A 10.575 10.575 0 0 0 131.3 68.5 A 8.129 8.129 0 0 0 137.036 66.122 Q 138.277 64.95 139.35 63.2 A 22.123 22.123 0 0 0 142.521 53.189 A 27.076 27.076 0 0 0 142.6 51.1 A 32.766 32.766 0 0 0 142.352 46.939 Q 141.845 42.988 140.3 40.3 A 8.615 8.615 0 0 0 138.33 37.824 Q 136.564 36.329 134.041 36.131 A 10.077 10.077 0 0 0 133.25 36.1 Z M 195 48.3 A 16.526 16.526 0 0 0 194.436 43.908 A 14.002 14.002 0 0 0 193 40.5 A 6.763 6.763 0 0 0 190.689 38.088 Q 189.394 37.301 187.693 37.141 A 9.542 9.542 0 0 0 186.8 37.1 Q 181.705 37.1 178.767 43.013 A 21.478 21.478 0 0 0 178.1 44.5 Q 176.392 57.143 175.924 60.737 A 201.491 201.491 0 0 0 175.8 61.7 A 8.474 8.474 0 0 0 175.795 61.983 Q 175.795 64.772 177.7 66.2 A 7.428 7.428 0 0 0 181.081 67.588 A 9.937 9.937 0 0 0 182.6 67.7 A 9.622 9.622 0 0 0 190.008 64.334 A 14 14 0 0 0 191 63.1 A 20.889 20.889 0 0 0 194.114 56.114 Q 194.834 53.246 194.969 49.88 A 39.415 39.415 0 0 0 195 48.3 Z M 322.1 37.1 L 318 36.8 Q 317.4 36.7 316.8 36.7 A 7.975 7.975 0 0 0 315.611 36.781 Q 314.073 37.014 313.559 37.92 A 2.152 2.152 0 0 0 313.3 39 A 2.907 2.907 0 0 0 313.443 39.952 Q 313.891 41.246 315.743 41.298 A 5.614 5.614 0 0 0 315.9 41.3 Q 319.8 41.3 322.1 37.1 Z M 330.4 67.3 L 334.5 67.6 Q 335.1 67.7 335.7 67.7 A 7.975 7.975 0 0 0 336.889 67.62 Q 338.427 67.386 338.941 66.481 A 2.152 2.152 0 0 0 339.2 65.4 A 2.907 2.907 0 0 0 339.057 64.449 Q 338.609 63.154 336.757 63.103 A 5.614 5.614 0 0 0 336.6 63.1 Q 332.7 63.1 330.4 67.3 Z M 30.154 30.931 A 1.338 1.338 0 0 0 30.2 30.6 Q 30.2 28.366 28.443 27.969 A 3.407 3.407 0 0 0 28 27.9 Q 25.575 27.9 25.502 30.535 A 5.997 5.997 0 0 0 25.5 30.7 A 2.938 2.938 0 0 0 25.88 32.098 Q 26.379 33.029 27.536 33.988 A 12.034 12.034 0 0 0 27.8 34.2 Q 29.869 32.046 30.154 30.931 Z" vector-effect="non-scaling-stroke"/></g></svg>